<svg width="22" height="22" viewBox="0 0 22 22" fill="none" xmlns="http://www.w3.org/2000/svg">
<g clip-path="url(#clip0_5981_7693)">
<path d="M21.5417 21.0834H0.458348C0.205348 21.0834 0 21.2887 0 21.5417C0 21.7947 0.205348 22 0.458348 22H21.5417C21.7947 22 22 21.7947 22 21.5417C22 21.2887 21.7947 21.0834 21.5417 21.0834Z" fill="white"/>
<path d="M4.1251 15.5834H1.3751C1.1221 15.5834 0.916748 15.7887 0.916748 16.0417V21.5417C0.916748 21.7947 1.1221 22 1.3751 22H4.1251C4.3781 22 4.58344 21.7947 4.58344 21.5417V16.0417C4.58344 15.7887 4.3781 15.5834 4.1251 15.5834ZM3.66675 21.0834H1.83344V16.5H3.66679V21.0834H3.66675Z" fill="white"/>
<path d="M9.6251 11H6.8751C6.6221 11 6.41675 11.2053 6.41675 11.4583V21.5417C6.41675 21.7947 6.6221 22 6.8751 22H9.6251C9.8781 22 10.0834 21.7947 10.0834 21.5417V11.4583C10.0834 11.2053 9.8781 11 9.6251 11ZM9.16675 21.0833H7.3334V11.9167H9.16675V21.0833Z" fill="white"/>
<path d="M15.1251 12.8334H12.3751C12.1221 12.8334 11.9167 13.0387 11.9167 13.2917V21.5417C11.9167 21.7947 12.1221 22.0001 12.3751 22.0001H15.1251C15.3781 22.0001 15.5834 21.7947 15.5834 21.5417V13.2917C15.5834 13.0387 15.3781 12.8334 15.1251 12.8334ZM14.6667 21.0834H12.8334V13.75H14.6667V21.0834Z" fill="white"/>
<path d="M20.6251 7.33337H17.8751C17.6221 7.33337 17.4167 7.53872 17.4167 7.79172V21.5417C17.4167 21.7947 17.6221 22.0001 17.8751 22.0001H20.6251C20.8781 22.0001 21.0834 21.7947 21.0834 21.5417V7.79172C21.0834 7.53868 20.8781 7.33337 20.6251 7.33337ZM20.1667 21.0834H18.3334V8.25003H20.1667V21.0834Z" fill="white"/>
<path d="M2.7501 8.25C1.739 8.25 0.916748 9.07225 0.916748 10.0833C0.916748 11.0944 1.739 11.9167 2.7501 11.9167C3.76119 11.9167 4.58344 11.0944 4.58344 10.0833C4.58344 9.07225 3.76119 8.25 2.7501 8.25ZM2.7501 11C2.2441 11 1.83344 10.5884 1.83344 10.0833C1.83344 9.57825 2.2441 9.1667 2.7501 9.1667C3.2561 9.1667 3.66675 9.57829 3.66675 10.0833C3.66675 10.5884 3.2561 11 2.7501 11Z" fill="white"/>
<path d="M8.2501 3.66663C7.239 3.66663 6.41675 4.48888 6.41675 5.49997C6.41675 6.51107 7.239 7.33332 8.2501 7.33332C9.26119 7.33332 10.0834 6.51107 10.0834 5.49997C10.0834 4.48888 9.26119 3.66663 8.2501 3.66663ZM8.2501 6.41662C7.7441 6.41662 7.33344 6.00503 7.33344 5.49997C7.33344 4.99487 7.7441 4.58332 8.2501 4.58332C8.7561 4.58332 9.16675 4.99492 9.16675 5.49997C9.16675 6.00507 8.7561 6.41662 8.2501 6.41662Z" fill="white"/>
<path d="M13.7501 5.5C12.739 5.5 11.9167 6.32225 11.9167 7.33335C11.9167 8.34445 12.739 9.1667 13.7501 9.1667C14.7612 9.1667 15.5834 8.34445 15.5834 7.33335C15.5834 6.32225 14.7612 5.5 13.7501 5.5ZM13.7501 8.25C13.2441 8.25 12.8334 7.8384 12.8334 7.33335C12.8334 6.82825 13.2441 6.4167 13.7501 6.4167C14.2561 6.4167 14.6667 6.82829 14.6667 7.33335C14.6667 7.8384 14.2561 8.25 13.7501 8.25Z" fill="white"/>
<path d="M19.2501 0C18.239 0 17.4167 0.82225 17.4167 1.83335C17.4167 2.84445 18.239 3.6667 19.2501 3.6667C20.2612 3.6667 21.0834 2.84445 21.0834 1.83335C21.0834 0.82225 20.2612 0 19.2501 0ZM19.2501 2.75C18.7441 2.75 18.3334 2.3384 18.3334 1.83335C18.3334 1.32825 18.7441 0.916695 19.2501 0.916695C19.7561 0.916695 20.1667 1.32829 20.1667 1.83335C20.1667 2.3384 19.7561 2.75 19.2501 2.75Z" fill="white"/>
<path d="M18.603 2.4805C18.4242 2.30175 18.1336 2.30175 17.9549 2.4805L14.3982 6.03715C14.2195 6.2159 14.2195 6.5065 14.3982 6.68525C14.4881 6.77415 14.6054 6.8191 14.7227 6.8191C14.8391 6.8191 14.9565 6.7751 15.0463 6.68525L18.603 3.1286C18.7817 2.94985 18.7817 2.65925 18.603 2.4805Z" fill="white"/>
<path d="M12.6417 6.27545L9.6974 5.4358C9.4508 5.3643 9.20055 5.5073 9.1318 5.75115C9.06215 5.99499 9.2033 6.24799 9.4462 6.31765L12.3905 7.1573C12.4327 7.1692 12.4749 7.1747 12.5161 7.1747C12.716 7.1747 12.8993 7.0436 12.957 6.84195C13.0267 6.59905 12.8856 6.3451 12.6417 6.27545Z" fill="white"/>
<path d="M7.53488 6.07107C7.37723 5.87307 7.08938 5.84097 6.89138 5.99772L3.43553 8.75322C3.23753 8.91182 3.20453 9.19963 3.36313 9.39763C3.45388 9.51128 3.58773 9.56997 3.72153 9.56997C3.82143 9.56997 3.92228 9.53697 4.00663 9.47097L7.46248 6.71547C7.66048 6.55688 7.69348 6.26907 7.53488 6.07107Z" fill="white"/>
</g>
<defs>
<clipPath id="clip0_5981_7693">
<rect width="22" height="22" fill="white"/>
</clipPath>
</defs>
</svg>
