<svg width="34" height="34" viewBox="0 0 34 34" fill="none" xmlns="http://www.w3.org/2000/svg">
<path fill-rule="evenodd" clip-rule="evenodd" d="M17 0C7.61116 0 0 7.61116 0 17C0 26.3888 7.61116 34 17 34C26.3888 34 34 26.3888 34 17C34 7.61116 26.3888 0 17 0ZM22.6914 23.1875V21.7812C22.6914 21.3929 22.3766 21.0781 21.9883 21.0781C21.5999 21.0781 21.2852 21.3929 21.2852 21.7812V23.1875C21.2852 23.9629 20.6543 24.5938 19.8789 24.5938H12.8125C12.0371 24.5938 11.4062 23.9629 11.4062 23.1875V10.8125C11.4062 10.0371 12.0371 9.40625 12.8125 9.40625H19.8789C20.6543 9.40625 21.2852 10.0371 21.2852 10.8125V12.2188C21.2852 12.6071 21.5999 12.9219 21.9883 12.9219C22.3766 12.9219 22.6914 12.6071 22.6914 12.2188V10.8125C22.6914 9.26164 21.4298 8 19.8789 8H12.8125C11.2616 8 10 9.26164 10 10.8125V23.1875C10 24.7384 11.2616 26 12.8125 26H19.8789C21.4298 26 22.6914 24.7384 22.6914 23.1875ZM25.9107 14.2177L27.4852 15.7922C28.1706 16.4776 28.1706 17.5927 27.4852 18.2781L25.9107 19.8526C25.7733 19.9899 25.5934 20.0586 25.4134 20.0586C25.2335 20.0586 25.0536 19.9899 24.9163 19.8526C24.6416 19.5781 24.6416 19.1329 24.9163 18.8583L26.0362 17.7383H17.5938C17.2054 17.7383 16.8906 17.4235 16.8906 17.0352C16.8906 16.6468 17.2054 16.332 17.5938 16.332H26.0362L24.9163 15.212C24.6416 14.9375 24.6416 14.4922 24.9163 14.2177C25.1908 13.9431 25.636 13.9431 25.9107 14.2177Z" fill="white"/>
</svg>
